<svg width="24" height="24" viewBox="0 0 24 24" fill="none" xmlns="http://www.w3.org/2000/svg">
<path d="M12.0004 5C13.4914 5.684 16.0004 4.5 16.0004 2C14.3584 2.623 13.5104 2.614 12.0004 2V5ZM12.0004 5V8M7.28441 9.71L6.86041 8.887C6.69241 8.559 6.60741 8.395 6.48041 8.277C6.37684 8.17866 6.2534 8.10364 6.11841 8.057C5.95341 8 5.76641 8 5.39241 8C4.84241 8 4.56841 8 4.35341 8.105C4.17854 8.19 4.03223 8.32414 3.93241 8.491C3.81041 8.694 3.79041 8.963 3.75141 9.502L3.07641 18.786C2.96641 20.292 2.91241 21.044 3.36541 21.522C3.81841 22 4.58541 22 6.12041 22H17.8784C19.4144 22 20.1814 22 20.6344 21.522C21.0874 21.044 21.0324 20.292 20.9234 18.786L20.2484 9.502C20.2084 8.963 20.1894 8.694 20.0684 8.491C19.9683 8.324 19.8217 8.18984 19.6464 8.105C19.4324 8 19.1574 8 18.6074 8C18.2344 8 18.0474 8 17.8824 8.057C17.7471 8.10351 17.6233 8.17854 17.5194 8.277C17.3934 8.395 17.3094 8.559 17.1394 8.887L16.7164 9.71C16.5964 9.943 16.5364 10.06 16.4554 10.153C16.3175 10.3118 16.1331 10.423 15.9284 10.471C15.8084 10.5 15.6754 10.5 15.4084 10.5C15.1114 10.5 14.9624 10.5 14.8304 10.465C14.6075 10.4052 14.4115 10.2716 14.2744 10.086C14.1944 9.978 14.1424 9.841 14.0374 9.567L13.9154 9.25C13.6924 8.668 13.5814 8.377 13.3464 8.203L13.2764 8.154C13.0254 8 12.7104 8 12.0764 8H11.9224C11.2894 8 10.9724 8 10.7244 8.154L10.6534 8.203C10.4184 8.377 10.3074 8.668 10.0834 9.25L9.96341 9.567C9.85741 9.841 9.80541 9.977 9.72541 10.087C9.58812 10.2722 9.39214 10.4055 9.16941 10.465C9.03741 10.5 8.88941 10.5 8.59141 10.5C8.32441 10.5 8.19141 10.5 8.07141 10.47C7.86681 10.4223 7.68242 10.3114 7.54441 10.153C7.46441 10.06 7.40541 9.943 7.28441 9.71Z" stroke="black" stroke-width="1.5" stroke-linecap="round" stroke-linejoin="round"/>
<path d="M9 22L9.608 18.961C9.751 18.243 9.823 17.885 10.015 17.619C10.494 16.96 11.262 17 12 17C12.738 17 13.507 16.96 13.985 17.62C14.177 17.884 14.249 18.243 14.392 18.961L15 22M11 14H13" stroke="black" stroke-width="1.5" stroke-linecap="round" stroke-linejoin="round"/>
</svg>
