<svg width="24" height="24" viewBox="0 0 24 24" fill="none" xmlns="http://www.w3.org/2000/svg">
<path d="M15 22L14.329 17.973C14.215 17.292 14.159 16.951 13.993 16.693C13.8308 16.4384 13.5955 16.2387 13.318 16.12C13.036 16 12.691 16 12 16C11.31 16 10.964 16 10.682 16.12C10.4046 16.2385 10.1694 16.4378 10.007 16.692C9.842 16.951 9.785 17.292 9.671 17.972L9 22M15.75 4H8.25C7.548 4 7.197 4 6.944 4.169C6.83522 4.24179 6.74179 4.33522 6.669 4.444C6.5 4.697 6.5 5.048 6.5 5.75C6.5 6.452 6.5 6.803 6.669 7.056C6.74179 7.16478 6.83522 7.25821 6.944 7.331C7.197 7.5 7.548 7.5 8.25 7.5H15.75C16.452 7.5 16.803 7.5 17.056 7.331C17.1648 7.25821 17.2582 7.16478 17.331 7.056C17.5 6.803 17.5 6.452 17.5 5.75C17.5 5.048 17.5 4.697 17.331 4.444C17.2582 4.33522 17.1648 4.24179 17.056 4.169C16.803 4 16.452 4 15.75 4Z" stroke="black" stroke-width="1.5" stroke-linecap="round" stroke-linejoin="round"/>
<path d="M16 7.5H8L6 22H18L16 7.5Z" stroke="black" stroke-width="1.5" stroke-linecap="round" stroke-linejoin="round"/>
<path d="M17.7939 22C19.9209 22 20.9839 22 21.5819 21.317C22.1799 20.635 22.0389 19.58 21.7579 17.471L21.4919 15.471C21.0659 12.276 20.0919 12 16.9999 12M6.20687 22C4.07887 22 3.01487 22 2.41687 21.317C1.81987 20.635 1.96087 19.58 2.24187 17.471L2.50787 15.471C2.93287 12.285 3.89787 12 6.99987 12M7.99987 4V2M11.9999 4V2M15.9999 4V2" stroke="black" stroke-width="1.5" stroke-linecap="round" stroke-linejoin="round"/>
</svg>
