<svg width="24" height="24" viewBox="0 0 24 24" fill="none" xmlns="http://www.w3.org/2000/svg">
<path d="M19.146 22L17.393 9.98C17.251 9.008 17.18 8.523 17.333 8.075C17.651 7.14 18.648 6.784 19.112 5.981C19.18 5.863 19.215 5.73 19.282 5.463L19.849 3.243C19.995 2.671 20.069 2.385 19.915 2.193C19.762 2 19.46 2 18.859 2H17.795C17.125 2 17.095 2.02 16.847 2.629L16.34 3.87C16.091 4.48 16.061 4.499 15.392 4.499H14.878C14.19 4.499 14.015 4.372 13.878 3.695L13.695 2.803C13.557 2.126 13.382 1.999 12.695 1.999H11.305C10.618 1.999 10.443 2.126 10.305 2.803L10.123 3.695C9.98396 4.372 9.80996 4.499 9.12196 4.499H8.60796C7.93796 4.499 7.90796 4.479 7.65996 3.87L7.15296 2.63C6.90396 2.019 6.87396 2 6.20496 2H5.14096C4.53896 2 4.23796 2 4.08496 2.192C3.93196 2.385 4.00496 2.671 4.15096 3.242L4.71696 5.462C4.78596 5.73 4.81996 5.863 4.88796 5.982C5.35196 6.784 6.34896 7.14 6.66796 8.075C6.81996 8.523 6.74896 9.008 6.60796 9.98L4.85396 22" stroke="black" stroke-width="1.5" stroke-linecap="round" stroke-linejoin="round"/>
<path d="M9 22L9.608 18.961C9.751 18.243 9.823 17.885 10.015 17.619C10.494 16.96 11.262 17 12 17C12.738 17 13.507 16.96 13.985 17.62C14.177 17.884 14.249 18.243 14.392 18.961L15 22M3 22H21M7 8H17M15 11H17M7 13H9" stroke="black" stroke-width="1.5" stroke-linecap="round" stroke-linejoin="round"/>
</svg>
